# xmcd
#
# Track frame offsets: 
#        150
#        44697
#        81675
#        112650
#        142167
#        185997
#        216080
#        249675
#
# Disc length: 3687 seconds
#
# Revision: 3
# Processed by: cddbd v1.5.2PL0 Copyright (c) Steve Scherf et al.
# Submitted via: ExactAudioCopy v0.95a4
#
DISCID=800e6508
DTITLE=Various Artist - West End Story Vol.1
DYEAR=1993
DGENRE=Dance
TTITLE0=Taana Gardner - Heartbeat
TTITLE1=Sparque - Let's Go Dancin'
TTITLE2=Shirley Lites - Heat You Up (Melt You Down)
TTITLE3=Raw Silk - Do It To The Music
TTITLE4=Michelle - Can't You Feel It
TTITLE5=Sybil Thomas - Rescue Me
TTITLE6=Stone - Time
TTITLE7=B. T. (Brenda Taylor) - You Can't Have Your Cake And Eat It To
TTITLE7=o
EXTD=
EXTT0=
EXTT1=
EXTT2=
EXTT3=
EXTT4=
EXTT5=
EXTT6=
EXTT7=
PLAYORDER=
